<?xml version="1.0" encoding="UTF-8"?>
<svg id="Layer_1" xmlns="http://www.w3.org/2000/svg" version="1.1" viewBox="0 0 1080 1080">
  <!-- Generator: Adobe Illustrator 30.1.0, SVG Export Plug-In . SVG Version: 2.1.1 Build 136)  -->
  <defs>
    <style>
      .st0 {
        fill: none;
        stroke: currentColor;
        stroke-miterlimit: 10;
        stroke-width: 20px;
      }
    </style>
  </defs>
  <path d="M254.4,135.6c34.26-12.82,68.92-23.73,104.4-32.62,15.43,140.02,23.63,280.59,24.43,421.46,1.25-.01,1.87-.02,3.11-.03,17.74-32.38,35.75-64.6,54.09-96.65,70.38-116.47,139.85-234.54,232.77-334.88,44.14,8.24,87.14,19.77,129.6,34.35-123.34,88.62-207.41,217.8-288.84,343.4,86.91,166.41,167.39,347.9,311.64,473.77-40.44,15.14-81.46,27.56-123.6,37.03-105.92-130.66-175.72-284.89-252.31-433.39-21.88,32.43-44.27,64.45-67.81,95.7-3.15,111.4-10.88,222.5-23.08,333.27-35.48-8.89-70.14-19.8-104.4-32.62,50.22-267.92,50.22-540.88,0-808.8Z"/>
  <rect class="st0" x="101.05" y="42.45" width="874.34" height="993.81" rx="15" ry="15"/>
</svg>