<?xml version="1.0" encoding="UTF-8"?>
<svg id="Layer_1" xmlns="http://www.w3.org/2000/svg" version="1.1" viewBox="0 0 1080 1080">
  <!-- Generator: Adobe Illustrator 30.1.0, SVG Export Plug-In . SVG Version: 2.1.1 Build 136)  -->
  <defs>
    <style>
      .st0 {
        fill: #fff;
        stroke: #fff;
        stroke-miterlimit: 10;
      }
    </style>
  </defs>
  <path class="st0" d="M254.99,135.91c34.16-12.75,68.72-23.6,104.1-32.44,15.38,139.87,23.54,280.28,24.34,420.99,1.24-.01,1.86-.02,3.11-.03,17.69-32.34,35.66-64.53,53.95-96.53,70.21-116.34,139.52-234.21,232.11-334.56,44.01,8.17,86.88,19.61,129.23,34.1-122.92,88.8-206.75,217.82-288,343.28,86.75,166.3,167.01,347.41,310.73,473.54-40.33,15.04-81.24,27.36-123.25,36.76-105.55-130.64-175.18-284.65-251.59-432.99-21.83,32.39-44.16,64.38-67.63,95.6-3.14,111.27-10.83,222.26-23,332.91-35.38-8.84-69.94-19.69-104.1-32.44,50.01-267.72,50.01-540.45,0-808.18Z"/>
</svg>